<?xml version="1.0" standalone="no"?>
<!DOCTYPE svg PUBLIC "-//W3C//DTD SVG 20010904//EN"
 "http://www.w3.org/TR/2001/REC-SVG-20010904/DTD/svg10.dtd">
<svg version="1.0" xmlns="http://www.w3.org/2000/svg"
 width="555.000000pt" height="854.000000pt" viewBox="0 0 555.000000 854.000000"
 preserveAspectRatio="xMidYMid meet">
<metadata>
Created by potrace 1.16, written by Peter Selinger 2001-2019
</metadata>
<g transform="translate(0.000000,854.000000) scale(0.100000,-0.100000)"
fill="#000000" stroke="none">
<path d="M2600 8511 c0 -16 4 -32 9 -36 5 -3 12 -19 16 -36 8 -34 35 -49 99
-55 45 -4 51 -8 43 -28 -8 -20 -37 -10 -37 13 -1 11 -5 8 -14 -9 -9 -16 -13
-52 -12 -102 2 -59 -1 -78 -11 -78 -16 0 -17 -12 -1 -28 9 -9 7 -17 -9 -34
-48 -53 -60 -128 -23 -148 12 -6 17 -17 14 -28 -4 -12 -3 -14 4 -4 5 7 7 24 4
38 -5 27 21 74 43 74 9 0 14 -12 14 -37 0 -21 1 -54 1 -73 1 -19 6 -40 12 -47
5 -7 7 -24 4 -38 -5 -21 -3 -25 15 -25 19 0 21 -4 15 -31 -4 -24 -1 -35 19
-54 20 -21 22 -26 8 -33 -13 -8 -13 -12 0 -38 8 -16 24 -38 36 -48 25 -23 26
-32 6 -52 -22 -23 -18 -30 16 -28 17 1 29 -2 27 -8 -2 -6 5 -21 16 -33 18 -18
51 -71 91 -147 12 -23 29 -24 17 0 -5 9 -19 40 -32 67 -13 28 -42 82 -65 120
-41 70 -65 150 -100 335 -9 47 -20 97 -25 112 -5 16 -4 30 1 34 14 8 11 58 -6
80 -19 25 -19 80 0 87 22 9 13 177 -11 190 -9 5 -12 12 -7 16 5 3 6 35 3 71
l-5 65 -87 3 -88 3 0 -30z"/>
<path d="M2687 7913 c-12 -3 -15 -11 -11 -27 5 -20 -9 -81 -82 -354 -14 -53
-31 -115 -36 -137 -6 -22 -14 -44 -19 -50 -4 -5 -10 -28 -14 -50 -11 -65 -57
-225 -65 -225 -4 0 -7 -12 -7 -27 1 -16 -3 -46 -7 -68 -6 -27 -5 -37 2 -30 10
10 33 89 82 280 40 155 58 222 70 258 5 18 21 68 35 112 55 171 92 327 76 324
-3 -1 -14 -3 -24 -6z"/>
<path d="M3050 7230 c-12 -8 -13 -13 -3 -29 7 -11 10 -34 6 -55 -4 -24 0 -44
11 -60 9 -14 16 -33 16 -43 0 -14 2 -15 9 -5 6 10 10 8 14 -10 11 -41 9 -52
-8 -38 -13 11 -14 5 -10 -41 3 -34 11 -58 21 -66 25 -18 48 -163 24 -148 -15
9 -12 -94 5 -169 8 -35 12 -71 9 -80 -4 -10 -1 -16 7 -16 9 -1 8 -4 -4 -11 -9
-5 -22 -7 -27 -4 -11 7 -14 -65 -4 -102 5 -17 13 -22 35 -20 16 1 29 5 29 8 0
10 81 71 87 66 2 -3 7 -27 10 -54 2 -26 11 -60 18 -75 13 -27 11 -30 -25 -68
-42 -44 -75 -94 -103 -154 -20 -46 -17 -54 18 -38 31 14 35 15 35 3 0 -5 -16
-15 -36 -21 -19 -7 -38 -18 -41 -26 -6 -17 -59 -15 -74 2 -19 24 -22 103 -5
157 14 44 15 66 7 118 -11 70 -27 360 -23 397 2 13 -2 30 -9 38 -6 8 -9 14 -6
14 2 0 -12 18 -32 40 -40 43 -51 49 -51 24 0 -12 -5 -14 -17 -9 -20 9 -29 9
-97 7 -35 -2 -47 -6 -43 -15 3 -8 -7 -18 -24 -24 -28 -11 -29 -10 -23 13 4 16
1 31 -11 44 -16 18 -15 20 24 44 30 19 41 33 41 51 0 16 -6 25 -15 25 -8 0
-15 4 -15 9 0 5 -13 14 -30 20 -28 9 -42 0 -20 -14 5 -3 7 -12 4 -19 -4 -11
-13 -11 -47 2 -26 9 -81 15 -147 16 l-105 1 -16 -55 c-8 -30 -18 -62 -22 -70
-3 -8 -10 -31 -16 -50 -5 -19 -10 -28 -10 -20 -1 8 3 30 8 48 12 42 5 42 -96
-7 -77 -37 -109 -61 -82 -61 26 0 -7 -19 -68 -39 -68 -23 -253 -31 -253 -11 0
13 -57 13 -65 -1 -8 -12 14 -31 77 -64 35 -19 63 -25 107 -25 37 0 61 -4 63
-12 3 -8 13 -4 29 11 13 12 40 32 59 43 19 12 40 26 45 32 18 21 65 47 65 36
0 -5 -29 -40 -64 -77 -44 -48 -75 -94 -103 -153 -71 -149 -67 -153 25 -23 12
17 12 17 8 -2 -18 -74 -17 -78 7 -30 13 28 40 65 61 83 39 34 70 45 44 15 -17
-20 -73 -143 -83 -185 -14 -56 8 -50 29 8 21 56 74 136 119 179 19 17 20 17
14 1 -4 -10 -7 -24 -7 -32 0 -8 -7 -14 -15 -14 -17 0 -85 -131 -85 -162 0 -9
-5 -20 -10 -23 -6 -4 -8 -15 -5 -26 4 -10 2 -19 -4 -19 -6 0 -8 -7 -5 -15 4
-8 3 -23 -2 -32 -8 -19 -11 -28 -13 -41 0 -5 -10 -18 -21 -29 -11 -12 -32 -47
-48 -78 -16 -32 -32 -53 -35 -49 -3 5 4 43 14 84 15 56 17 90 12 140 l-7 65
-12 -65 c-7 -36 -15 -92 -19 -125 -8 -75 -15 -105 -25 -105 -12 0 -20 28 -20
70 0 50 -34 91 -105 126 -42 20 -58 24 -68 15 -8 -6 -16 -9 -19 -6 -2 3 -42 8
-89 11 -46 4 -89 10 -95 15 -12 10 -45 1 -55 -14 -10 -14 38 -117 68 -149 35
-36 59 -41 81 -14 9 12 28 29 41 38 23 16 25 16 37 0 8 -9 14 -32 14 -49 0
-28 -6 -35 -41 -53 -24 -13 -48 -18 -61 -14 -12 4 -18 2 -14 -4 7 -12 -22 -74
-41 -85 -30 -18 -5 -156 39 -219 22 -32 22 -33 -23 -13 -88 39 -140 124 -141
231 -1 55 2 66 32 103 18 22 40 41 47 41 11 0 9 7 -6 26 -12 15 -21 34 -21 43
0 10 -7 26 -15 37 -14 17 -14 16 -9 -23 4 -28 3 -43 -4 -43 -22 0 -72 -136
-72 -196 0 -53 31 -130 71 -177 39 -45 121 -97 154 -97 8 0 15 -8 15 -17 0
-11 3 -14 8 -8 8 12 58 35 76 35 16 0 50 -105 47 -147 -2 -36 13 -50 34 -33 8
7 15 9 15 5 0 -4 7 -1 16 6 14 11 18 10 27 -6 6 -11 32 -42 57 -68 l46 -48 12
26 c6 14 16 25 22 25 14 0 21 24 -57 -180 -13 -36 -29 -93 -34 -128 -5 -34
-17 -87 -28 -116 -10 -30 -15 -59 -11 -66 8 -13 -7 -60 -20 -60 -3 0 -26 -19
-50 -41 -25 -23 -37 -39 -27 -36 9 4 17 2 17 -3 0 -6 -4 -10 -9 -10 -4 0 -16
-30 -26 -66 -15 -55 -16 -69 -5 -90 13 -23 29 -32 31 -16 1 4 2 22 4 40 3 34
48 112 65 112 16 0 12 -46 -6 -61 -11 -9 -13 -20 -8 -38 9 -36 12 -134 4 -146
-8 -10 -9 -45 -3 -45 2 0 24 11 49 25 47 26 69 32 59 15 -4 -6 -2 -17 5 -25
13 -16 3 -27 -67 -76 -24 -16 -43 -37 -43 -46 0 -14 3 -14 23 4 12 11 36 29
52 39 l30 19 -27 -33 c-22 -26 -25 -37 -18 -56 5 -13 6 -27 3 -30 -10 -10 -43
-7 -43 5 0 5 -4 8 -9 4 -5 -3 -12 4 -16 15 -3 11 -15 25 -26 30 -16 9 -19 7
-19 -10 0 -22 47 -100 61 -100 5 0 9 -6 9 -14 0 -22 24 -38 38 -24 9 9 12 7
12 -8 0 -11 12 -37 27 -59 20 -29 27 -51 26 -80 -2 -59 -7 -88 -17 -104 -7
-11 -10 -11 -18 3 -13 23 -27 20 -34 -8 -6 -26 -29 -36 -85 -36 -50 0 -136
-27 -160 -51 -10 -10 -24 -19 -29 -19 -6 0 -8 -11 -4 -25 7 -29 -3 -33 -21 -8
-11 15 -13 14 -20 -8 -16 -54 -49 -119 -62 -119 -7 0 -13 -10 -13 -22 0 -27
-26 -68 -59 -97 -29 -26 -46 -27 -36 -3 4 9 10 26 13 37 2 11 13 29 22 40 10
11 35 54 56 95 20 41 42 78 48 82 11 7 -41 128 -56 128 -4 0 -8 8 -9 18 0 13
-2 14 -6 2 -4 -8 -12 -19 -18 -25 -24 -20 -92 -113 -104 -144 -8 -17 -17 -31
-22 -31 -18 0 -9 47 12 66 12 10 30 38 40 61 10 23 29 49 43 59 14 9 26 23 26
31 0 8 4 11 10 8 5 -3 10 -1 10 5 0 16 -41 2 -62 -21 -10 -10 -18 -23 -18 -29
0 -13 -67 -117 -82 -126 -20 -13 -20 7 1 42 12 20 20 38 18 41 -9 8 -57 -90
-57 -117 0 -19 -13 -41 -41 -69 -23 -22 -45 -41 -49 -41 -16 0 -38 48 -38 83
0 20 3 35 7 34 3 -1 7 2 9 7 1 5 -15 11 -35 13 -21 2 -48 5 -60 8 -12 3 -25 0
-29 -6 -4 -8 -9 -7 -15 2 -7 11 -9 11 -9 1 0 -7 10 -17 22 -21 22 -9 22 -9 -7
-16 -45 -10 -60 -20 -63 -44 -4 -25 10 -28 28 -6 9 10 16 12 20 6 3 -6 17 7
31 29 27 44 50 54 42 18 -3 -13 -10 -29 -16 -35 -12 -17 5 -17 21 -1 9 9 12 8
12 -6 0 -9 5 -14 10 -11 11 7 6 -51 -11 -115 -5 -19 -9 -49 -9 -67 l0 -32 -57
6 c-32 3 -61 10 -64 15 -3 5 -9 2 -13 -7 -3 -10 -1 -24 5 -31 17 -20 -2 -17
-31 6 -30 23 -40 25 -40 6 0 -11 -8 -12 -35 -6 -19 4 -35 6 -35 3 0 -3 -16 7
-36 22 -32 25 -37 26 -62 13 -50 -26 -92 -53 -92 -59 0 -4 12 -15 27 -24 33
-22 109 -99 117 -120 9 -25 -35 -92 -53 -81 -5 3 -14 -1 -21 -10 -11 -12 -15
-12 -21 -2 -6 9 -15 6 -36 -14 -15 -15 -39 -33 -53 -40 -42 -22 -240 -158
-325 -223 -103 -78 -151 -106 -171 -98 -8 3 -24 -3 -34 -13 -38 -37 -51 -45
-68 -40 -37 12 -42 -5 -26 -83 10 -50 12 -76 5 -80 -6 -4 2 -18 19 -35 22 -20
30 -24 30 -12 0 9 5 16 10 16 16 0 90 -39 90 -48 0 -4 12 -9 26 -10 14 -1 38
-11 53 -21 15 -11 42 -24 61 -29 l35 -10 -42 -1 c-52 -1 -62 -15 -26 -37 15
-10 46 -34 68 -55 41 -39 70 -50 93 -35 15 9 116 17 108 8 -10 -9 43 -30 64
-25 11 3 20 0 20 -6 0 -6 5 -11 10 -11 6 0 10 8 10 17 0 13 3 14 12 5 8 -8 17
-8 30 -1 15 8 34 5 81 -15 63 -25 110 -39 137 -41 8 0 14 -9 13 -19 0 -10 15
-28 38 -44 33 -23 38 -31 35 -59 -2 -18 1 -33 5 -33 5 0 9 -7 9 -15 0 -8 -8
-15 -17 -15 -13 0 -14 -3 -5 -12 7 -7 12 -29 12 -50 0 -21 5 -38 11 -38 6 0 8
-7 5 -16 -4 -11 -2 -15 8 -11 7 3 19 0 25 -6 8 -8 11 -7 11 6 0 9 7 17 15 17
14 0 14 -3 1 -27 -23 -45 -126 -164 -155 -181 -32 -18 -104 -129 -90 -137 5
-4 9 -1 9 5 0 7 7 9 16 6 8 -3 13 -2 10 3 -3 5 1 12 10 15 12 5 15 2 9 -11
-21 -53 -23 -52 78 -59 58 -5 67 -4 67 11 0 13 6 16 24 11 16 -4 35 2 60 19
20 14 41 25 45 25 5 0 23 16 40 35 23 27 31 45 31 74 0 21 4 51 9 67 5 16 14
61 21 99 28 166 71 313 106 367 13 21 24 46 24 57 0 11 5 23 10 26 6 3 10 15
10 26 0 22 37 100 52 110 5 3 11 12 12 20 6 30 19 49 32 49 8 0 19 11 24 25 7
18 17 25 37 25 43 0 73 -11 73 -26 0 -16 -26 -19 -35 -4 -3 6 -16 10 -29 10
-27 0 -46 -35 -46 -83 -1 -103 -45 -315 -78 -374 -7 -12 -12 -31 -12 -42 0
-11 -4 -23 -10 -26 -5 -3 -17 -23 -25 -43 -9 -20 -22 -50 -30 -67 -14 -33 -39
-97 -41 -105 -1 -8 -15 -44 -23 -60 -4 -8 -6 -50 -6 -92 1 -42 -2 -75 -7 -72
-4 3 -8 1 -8 -5 0 -5 -3 -18 -6 -28 -5 -15 -4 -15 5 -3 9 13 11 13 11 -2 0
-10 -7 -18 -15 -18 -8 0 -15 -4 -15 -9 0 -5 -3 -18 -6 -28 -3 -10 1 -8 11 7
15 25 16 24 9 -20 -4 -25 -7 -51 -7 -58 0 -8 -11 -6 -34 8 l-33 19 -5 -22
c-20 -88 -23 -126 -16 -183 2 -22 108 -85 166 -100 55 -15 60 -14 83 3 25 18
58 115 47 133 -3 5 2 18 12 29 11 14 19 17 24 9 4 -6 15 -8 24 -4 14 5 15 9 5
21 -9 11 -9 18 3 30 20 19 28 19 21 0 -4 -8 -1 -15 6 -15 6 0 14 9 17 19 3 11
11 22 19 25 25 10 15 26 -18 26 -29 0 -30 1 -15 18 10 10 17 25 17 33 0 18 35
49 55 49 9 0 12 6 9 15 -4 8 -2 15 4 15 6 0 12 -5 14 -12 2 -6 10 -8 16 -4 16
10 15 29 0 21 -7 -4 -2 3 12 14 16 13 33 19 47 16 18 -4 23 -1 23 14 0 11 6
21 14 23 13 3 13 6 0 22 -13 18 -14 18 -14 2 0 -10 -4 -14 -12 -10 -7 5 -9 2
-5 -9 3 -9 0 -18 -9 -21 -8 -3 -14 1 -14 10 0 8 -4 12 -10 9 -6 -3 -7 1 -4 9
3 9 1 16 -5 16 -20 0 -11 21 47 106 53 79 59 85 85 80 17 -4 26 -2 22 4 -6 9
38 74 93 137 12 14 22 31 22 37 0 7 19 31 43 55 23 23 53 60 67 80 47 71 85
120 93 121 4 0 24 18 44 41 30 33 39 38 47 27 35 -46 97 -61 140 -33 21 14 24
13 42 -6 25 -29 79 -51 107 -44 30 8 131 -39 157 -72 14 -19 20 -41 20 -80 0
-48 4 -58 31 -85 30 -30 32 -31 103 -25 93 8 119 18 175 69 52 47 70 78 103
169 18 52 22 84 22 174 -1 155 -8 173 -223 536 l-22 37 35 20 c18 11 48 41 66
67 53 77 128 234 141 293 l11 56 95 -102 c52 -56 112 -111 133 -123 22 -12 42
-29 45 -38 4 -9 47 -149 96 -311 49 -162 96 -311 105 -330 9 -19 17 -53 18
-75 1 -22 9 -56 18 -75 9 -19 20 -46 23 -60 15 -54 100 -210 117 -216 10 -3
18 -11 18 -17 1 -19 48 -49 73 -45 21 3 22 7 25 137 2 97 -1 145 -11 170 -8
20 -12 41 -10 48 2 6 -1 14 -6 18 -6 3 -11 19 -11 34 0 15 -5 32 -11 38 -7 7
-13 29 -15 50 -4 52 -12 89 -30 148 -36 120 -84 298 -84 311 0 7 23 13 54 16
65 5 175 67 232 131 37 40 89 141 126 246 44 122 31 517 -27 843 -15 83 -47
228 -62 283 -3 11 11 0 31 -25 20 -25 36 -50 36 -57 0 -7 25 -28 55 -48 44
-28 60 -33 75 -25 25 13 77 13 82 -1 2 -5 11 -7 21 -4 18 8 24 55 7 55 -5 0
-10 5 -10 10 0 6 8 10 18 10 12 0 14 2 4 8 -13 9 -10 26 11 70 12 25 -4 198
-30 317 -8 39 -19 89 -24 112 -5 24 -20 69 -35 100 -18 41 -23 62 -16 73 7 11
2 26 -19 56 -28 41 -29 65 -2 42 11 -9 16 -9 23 1 5 9 18 11 40 6 24 -5 31 -4
25 5 -5 9 -1 10 14 6 58 -17 62 -15 18 8 -27 15 -54 26 -62 26 -7 0 -15 6 -18
13 -3 8 -11 4 -24 -12 -13 -16 -26 -22 -36 -18 -23 9 -21 24 4 30 12 3 18 10
15 16 -4 6 -15 7 -29 2 -38 -14 -64 12 -65 66 -2 59 -7 63 -25 21 -13 -31 -18
-34 -45 -30 -27 4 -30 7 -22 26 l8 22 -59 -20 c-33 -10 -63 -16 -66 -12 -11
11 16 24 64 31 62 9 99 45 94 93 -2 20 -71 14 -136 -13 -37 -14 -64 -20 -69
-15 -6 6 -14 1 -21 -13 -7 -13 -20 -22 -33 -21 -19 1 -30 -14 -63 -84 -23 -47
-46 -113 -52 -148 -6 -35 -15 -64 -19 -64 -4 0 -14 13 -23 29 -13 26 -13 33 1
68 9 21 21 41 26 44 6 4 8 15 6 25 -2 13 -20 -12 -51 -73 -51 -101 -57 -124
-29 -116 14 3 21 -4 30 -34 20 -61 19 -87 -1 -91 -12 -2 -22 7 -32 32 -20 47
-28 46 -20 -4 4 -23 3 -40 -3 -40 -14 0 33 -92 62 -119 14 -14 26 -32 26 -40
-1 -11 -11 -4 -31 19 -22 27 -36 34 -57 32 -18 -2 -34 4 -46 17 -10 11 -23 18
-29 14 -6 -4 -7 -1 -2 7 5 9 2 10 -13 6 -12 -4 -23 -2 -28 5 -5 9 -2 10 9 6
25 -9 20 4 -14 43 -17 19 -28 27 -25 18 5 -18 -19 -74 -30 -71 -4 1 -13 18
-19 37 -11 30 -10 37 4 49 9 8 21 16 28 18 8 3 6 12 -8 29 l-20 25 6 -25 c3
-14 -6 -2 -19 25 -14 28 -26 56 -26 63 0 8 -16 12 -45 12 -44 0 -44 0 -33 -25
13 -28 6 -40 -17 -32 -8 4 -15 17 -15 31 0 21 -8 26 -57 41 -50 14 -74 24
-116 43 -5 3 -4 -5 2 -16 14 -27 10 -72 -7 -72 -7 0 -24 8 -38 17 -43 28 -113
23 -156 -11 -21 -15 -38 -35 -38 -42 0 -12 -17 -13 -69 -5 -10 2 38 45 86 77
65 43 61 54 -26 73 -34 7 -61 16 -61 20 0 3 16 13 36 22 l36 16 -98 27 c-207
56 -349 100 -354 107 -3 4 -12 4 -20 -1 -8 -5 -21 -5 -30 0 -13 7 -22 -5 -50
-63 -19 -40 -37 -74 -41 -77 -17 -12 -13 -60 5 -60 8 0 16 -7 20 -15 8 -22 35
-7 51 29 10 24 14 27 14 10 1 -11 -4 -25 -10 -31 -18 -18 -4 -40 38 -59 63
-30 68 -40 25 -57 -29 -12 -38 -12 -44 -2 -10 16 -67 40 -75 31 -12 -12 13
-41 36 -44 21 -3 21 -5 -11 -28 -32 -24 -49 -74 -24 -74 44 1 93 24 143 67 49
42 106 83 160 116 6 4 14 3 17 -2 4 -5 -11 -19 -31 -32 -44 -26 -122 -88 -175
-137 -31 -30 -42 -34 -77 -30 -23 2 -41 2 -41 0 0 -1 9 -20 19 -40 20 -40 29
-76 35 -154 4 -46 3 -49 -41 -88 -25 -22 -49 -38 -53 -35 -4 3 -11 -3 -14 -12
-4 -10 -10 -13 -15 -7 -9 9 -56 196 -72 284 -4 25 -12 67 -17 94 -7 36 -6 55
5 76 11 23 11 36 1 73 -9 35 -9 52 0 71 11 24 3 43 -12 29 -14 -15 -51 -7 -63
12 -24 39 -15 97 22 159 40 67 42 76 16 76 -13 0 -21 -10 -25 -34 -8 -42 -20
-45 -106 -31 -86 15 -93 20 -84 58 8 38 21 56 49 67 16 7 12 9 -17 9 -27 1
-40 7 -48 22 -17 31 -5 66 26 73 20 5 35 -1 73 -33 74 -62 79 -71 43 -71 -17
0 -34 -5 -37 -10 -9 -15 23 -24 48 -13 16 8 34 4 71 -13 58 -27 82 -21 40 10
-29 21 -91 72 -151 123 -17 16 -29 30 -27 33 3 2 22 3 42 1 26 -2 45 -12 64
-32 15 -16 31 -29 36 -29 6 0 31 -21 57 -47 42 -41 49 -44 57 -29 5 10 7 28 4
42 -4 14 -2 24 4 24 5 0 10 -7 10 -15 0 -12 6 -14 28 -8 15 4 39 8 55 8 15 0
27 1 27 2 0 2 -16 24 -36 50 -48 62 -84 140 -84 181 0 37 14 40 49 12 20 -17
22 -26 17 -63 -4 -26 -1 -50 7 -63 6 -12 26 -48 44 -81 25 -47 38 -62 64 -69
17 -5 35 -16 40 -24 4 -8 20 -40 35 -71 l27 -56 106 -27 c58 -15 108 -31 111
-36 3 -5 19 -8 35 -8 17 0 71 -11 120 -26 143 -43 134 -42 101 -7 -20 20 -32
27 -37 20 -4 -8 -9 -4 -13 9 -4 11 -14 23 -22 26 -8 3 -12 11 -8 17 3 6 1 22
-6 35 -10 18 -11 33 -2 61 10 34 23 89 35 151 3 12 3 22 0 22 -3 0 -31 -26
-62 -58 -51 -53 -147 -120 -157 -109 -2 2 5 16 17 31 25 31 51 123 38 132 -5
3 9 38 31 78 59 108 88 212 55 200 -20 -8 -20 32 0 66 8 14 14 42 15 62 0 44
18 88 36 88 17 0 23 -36 29 -159 2 -57 6 -105 8 -108 3 -2 17 -1 32 3 18 4 23
9 15 14 -16 10 -5 60 13 60 22 0 75 -63 82 -97 8 -42 17 -41 37 1 14 27 23 34
53 38 41 5 52 -4 30 -22 -8 -7 -15 -19 -15 -27 0 -19 -35 -64 -44 -56 -3 4
-13 -2 -21 -13 -22 -29 -18 -40 6 -18 22 19 22 19 8 -3 -8 -13 -19 -23 -26
-23 -7 0 -13 -6 -13 -14 0 -8 -6 -21 -13 -28 -7 -7 -13 -22 -13 -33 0 -11 -4
-40 -8 -64 -6 -31 -5 -42 3 -37 7 5 11 -6 11 -31 0 -21 3 -62 7 -92 l6 -54
-29 7 c-16 4 -35 16 -43 26 -7 11 -24 20 -37 20 -24 0 -24 0 -9 -37 9 -20 23
-45 33 -55 9 -10 26 -28 37 -39 31 -32 173 -95 245 -108 36 -7 75 -14 87 -17
19 -3 24 4 43 64 12 37 25 73 30 81 4 8 4 28 -2 45 -5 17 -13 52 -18 79 -5 26
-21 64 -34 84 -17 25 -23 44 -19 63 3 15 0 31 -6 34 -6 4 -11 0 -11 -10 0 -16
-1 -16 -19 0 -13 12 -27 15 -45 10 -20 -5 -26 -2 -26 10 0 9 9 21 20 28 28 18
25 30 -5 22 -27 -7 -31 4 -26 67 1 14 -5 38 -13 53 -17 34 -10 66 15 66 19 0
31 -33 44 -122 3 -25 12 -52 20 -58 12 -10 13 -5 9 27 -5 34 -4 36 9 21 8 -10
20 -18 28 -18 20 0 158 39 203 58 42 18 86 58 86 79 0 16 3 17 -88 -6 -43 -11
-108 -22 -146 -26 -86 -9 -96 -12 -89 -33 4 -12 3 -14 -5 -7 -7 6 -16 35 -22
65 -10 50 -20 77 -20 52 0 -15 -47 -16 -56 0 -4 6 0 16 8 22 13 10 13 13 1 25
-19 17 -13 45 11 49 14 3 17 0 13 -12 -8 -20 12 -66 28 -66 7 0 10 11 7 30 -3
21 0 32 12 36 9 3 16 12 16 18 0 7 14 25 31 42 31 28 59 80 59 106 0 7 -5 20
-10 28 -8 13 -11 12 -25 -5 -9 -11 -13 -14 -10 -7 6 11 3 11 -14 0 -22 -14
-30 -34 -8 -22 6 4 0 -6 -14 -21 -32 -33 -54 -25 -45 16 4 21 2 27 -8 23 -16
-6 -48 40 -45 64 1 9 -3 35 -10 58 -10 31 -11 46 -2 63 10 17 9 21 -4 21 -12
0 -15 6 -10 21 4 12 2 40 -3 63 -18 71 -40 167 -62 266 -48 224 -61 279 -85
345 -15 39 -31 85 -36 103 -5 17 -14 32 -19 32 -6 0 -10 9 -10 20 0 22 -7 25
-30 10z m-887 -1250 c6 0 3 -6 -7 -13 -18 -13 -18 -14 -1 -21 11 -4 22 0 30
10 6 10 17 14 23 10 12 -7 61 -130 68 -172 3 -16 11 -54 19 -84 8 -30 12 -56
10 -58 -2 -2 -15 18 -30 45 l-26 48 6 -49 c5 -33 3 -46 -4 -41 -6 3 -11 18
-11 33 -1 37 -26 140 -38 155 -6 7 -13 29 -17 50 -6 29 -11 36 -24 32 -10 -3
-25 3 -36 15 -17 19 -17 21 1 47 15 23 19 25 22 11 2 -10 8 -18 15 -18z m420
-76 c10 -4 17 -17 17 -33 1 -23 2 -24 11 -8 6 9 7 26 4 37 -5 15 -2 20 12 20
12 0 39 -27 71 -68 60 -79 61 -107 7 -118 -53 -10 -68 -2 -82 41 l-12 40 4
-58 c4 -46 2 -59 -10 -63 -23 -9 -58 26 -51 51 2 11 9 36 14 56 7 28 5 44 -9
74 -22 46 -23 48 -6 41 6 -3 20 -9 30 -12z m-667 -44 c21 0 38 -58 27 -94 -8
-24 -7 -37 3 -50 33 -46 -30 -68 -100 -36 -57 25 -67 52 -50 128 6 28 62 64
89 57 11 -2 25 -5 31 -5z m213 -570 c13 -52 30 -125 39 -163 14 -56 14 -71 4
-88 -8 -12 -11 -24 -7 -27 3 -4 10 0 14 7 11 17 12 13 46 -149 15 -69 33 -154
41 -190 7 -36 14 -72 14 -81 0 -15 -79 -82 -97 -81 -4 0 -17 -5 -28 -11 -11
-6 -22 -11 -25 -10 -3 1 -10 -4 -16 -11 -9 -9 -8 -23 1 -52 7 -21 16 -54 19
-73 l6 -35 -24 23 c-13 13 -30 36 -36 51 -7 17 -17 27 -25 24 -18 -7 -42 41
-58 118 -11 53 -11 73 0 123 8 35 12 81 8 110 -18 154 -19 143 30 270 26 66
52 134 58 150 5 17 14 33 19 36 6 3 3 9 -6 12 -13 5 -14 11 -4 32 8 19 8 34 0
64 -14 46 -16 69 -3 56 4 -6 18 -53 30 -105z m1986 22 l-20 -5 20 -7 c19 -7
18 -9 -7 -19 -89 -36 -88 -34 -38 -41 l45 -5 -35 -9 c-19 -5 -39 -9 -45 -10
-5 0 -18 -6 -29 -12 -14 -9 -16 -15 -8 -30 15 -29 19 -119 5 -117 -6 2 -15 -7
-18 -19 -6 -16 -9 -18 -16 -7 -7 11 -9 10 -9 -4 0 -14 5 -16 26 -11 19 5 25 4
20 -5 -9 -14 7 -14 22 1 15 15 35 -2 62 -55 22 -44 62 -87 79 -87 5 0 16 21
23 47 13 45 16 48 53 54 22 4 44 3 49 -2 6 -6 3 -9 -7 -9 -21 0 -21 -1 -2 -36
8 -16 23 -29 32 -29 24 0 36 -60 16 -77 -8 -7 -19 -22 -24 -35 -14 -38 -61
-31 -98 14 -17 20 -34 34 -37 30 -4 -4 1 -16 10 -26 10 -11 15 -24 12 -29 -3
-4 4 -16 15 -25 21 -19 25 -67 8 -99 -11 -21 -12 -21 -25 -3 -13 18 -14 17
-15 -11 -1 -16 -1 -35 0 -41 1 -7 -7 -13 -19 -13 -11 0 -20 -4 -20 -10 0 -5 9
-10 21 -10 11 0 17 -4 14 -10 -14 -22 -52 -8 -92 33 -70 72 -124 207 -126 316
-1 50 -14 79 -37 81 -7 0 33 -203 50 -255 7 -22 20 -59 28 -82 19 -56 12 -73
-17 -44 -15 15 -21 30 -18 43 7 24 -2 50 -13 43 -14 -9 -100 112 -119 168 -22
64 -35 149 -27 175 4 11 18 23 32 26 23 6 25 11 20 39 -17 94 -18 117 -7 117
6 0 11 6 11 13 0 6 4 18 9 25 9 15 32 6 73 -26 15 -12 23 -8 65 31 57 52 81
67 108 66 l20 -1 -20 -6z m-965 -282 c13 -9 12 -13 -6 -28 l-20 -17 23 -25
c29 -31 46 -84 41 -129 -2 -27 -10 -38 -37 -53 -30 -17 -35 -18 -57 -3 -43 28
-68 92 -68 175 l-1 75 30 6 c46 10 79 10 95 -1z m333 -17 c-3 -10 -13 -26 -21
-35 -8 -10 -11 -18 -6 -18 5 0 2 -5 -6 -10 -12 -8 -13 -14 -2 -42 7 -18 14
-37 15 -42 1 -5 -19 -16 -46 -24 -45 -15 -48 -15 -62 4 -24 32 -18 69 15 97
17 14 30 29 30 34 0 5 7 19 16 31 19 28 77 32 67 5z m-531 -137 c4 -115 8
-138 31 -186 26 -55 68 -103 126 -148 35 -27 36 -26 17 19 -7 19 -17 43 -21
54 -4 11 -9 48 -11 81 l-3 62 30 -3 c16 -1 32 -5 36 -9 3 -3 19 9 35 27 l29
32 87 -3 c48 -2 91 -7 96 -12 6 -6 5 -28 -2 -57 -6 -30 -7 -52 -1 -58 12 -12
11 -52 -2 -60 -6 -4 -8 -13 -5 -21 3 -8 0 -14 -6 -14 -6 0 -8 -11 -5 -30 6
-28 4 -30 -35 -40 -52 -14 -62 -15 -126 -6 -52 8 -53 8 -40 -13 19 -31 -2 -44
-69 -44 -47 0 -72 7 -128 36 -120 60 -143 96 -198 297 -21 76 -22 91 -12 138
18 78 35 92 110 91 l62 -1 5 -132z m587 -519 c1 -21 -4 -48 -10 -59 -8 -14 -8
-23 0 -31 7 -7 4 -18 -10 -35 -11 -14 -17 -33 -14 -43 9 -27 -10 -32 -111 -30
-52 1 -94 -1 -94 -6 0 -4 4 -24 10 -43 l9 -35 -34 37 c-34 37 -41 35 -36 -9 3
-22 -9 -14 -19 12 -5 14 -16 25 -25 25 -35 0 -11 21 42 36 40 12 65 14 87 7
38 -11 66 -6 66 12 0 14 -63 31 -152 42 -37 4 -54 1 -81 -16 -29 -18 -35 -28
-41 -70 -5 -39 -1 -65 24 -137 16 -48 37 -92 45 -97 8 -4 15 -16 15 -25 0 -9
16 -31 37 -48 22 -18 33 -35 29 -42 -10 -17 -52 7 -100 57 -44 47 -51 49 -66
21 -6 -11 -19 -20 -29 -20 -29 0 -32 -11 -10 -47 18 -28 18 -32 4 -26 -15 5
-16 3 -6 -15 10 -18 9 -22 -5 -22 -21 0 -12 -39 19 -90 12 -19 22 -40 22 -45
0 -11 29 -59 62 -105 20 -27 4 -22 -32 11 -21 19 -21 18 -34 -42 -12 -52 -12
-62 0 -70 11 -6 11 -11 1 -21 -9 -9 -12 -9 -12 2 -1 13 -2 13 -9 0 -11 -19
-23 -84 -26 -135 -3 -55 -15 -98 -30 -110 -6 -5 -14 -14 -16 -20 -5 -15 -55
-55 -69 -55 -10 0 -10 3 0 15 7 8 9 15 6 15 -17 0 -103 -57 -125 -83 -13 -15
-29 -26 -36 -23 -8 3 -25 -19 -45 -55 -17 -32 -33 -59 -36 -59 -3 0 -3 17 1
37 6 40 29 83 52 96 7 4 13 19 13 32 0 15 10 31 24 41 34 21 36 43 8 74 -13
14 -40 52 -59 84 -30 53 -32 60 -18 69 14 7 16 25 14 108 -2 54 -1 100 2 102
2 2 22 10 43 18 37 13 97 76 157 164 24 36 21 83 -9 147 -29 62 -31 80 -17
139 l12 54 12 -44 c7 -24 27 -77 46 -119 31 -71 33 -74 45 -52 7 13 14 60 16
104 2 45 9 107 15 139 10 46 14 55 25 46 30 -25 3 29 -44 88 -23 30 -29 44
-20 49 6 4 14 2 16 -4 6 -19 43 -62 53 -62 5 0 8 10 6 22 -1 12 3 23 8 24 6 0
27 8 47 17 41 18 98 22 113 8 10 -9 92 -31 129 -34 10 -1 21 3 23 9 6 17 -140
64 -217 71 -51 4 -78 1 -124 -16 -46 -16 -62 -18 -68 -8 -14 21 -9 28 33 46
57 26 156 19 289 -19 58 -16 115 -30 127 -30 27 0 65 67 63 108 -3 40 0 49 10
27 5 -11 9 -37 9 -58z m-2096 -1541 c23 -18 61 -46 85 -61 41 -27 54 -58 33
-80 -5 -6 -14 -27 -21 -48 -11 -36 -14 -39 -44 -34 -135 21 -176 30 -211 45
-41 17 -101 74 -111 105 -7 23 -27 22 -114 -8 -40 -14 -78 -25 -84 -25 -20 0
18 20 82 41 34 11 60 24 58 28 -3 4 9 8 27 8 70 2 114 12 167 37 71 33 83 33
133 -8z m1246 -125 c2 -1 -2 -8 -9 -16 -7 -9 -11 -38 -9 -77 4 -75 -3 -89 -41
-86 -15 1 -35 -4 -44 -11 -22 -18 -26 -13 -33 47 -7 63 1 90 22 72 17 -14 37
-4 34 18 -3 32 1 53 9 48 4 -2 14 -1 21 4 12 7 20 7 50 1z"/>
<path d="M3222 6358 c-6 -6 -12 -18 -12 -25 0 -8 -20 -48 -45 -91 -46 -77 -80
-163 -73 -183 2 -6 35 30 73 79 39 50 75 91 81 91 15 1 26 29 18 43 -4 6 -12
30 -18 55 -9 35 -14 41 -24 31z"/>
<path d="M4250 5773 c0 -26 22 -83 57 -146 18 -33 33 -62 33 -67 0 -4 7 -21
15 -36 8 -16 15 -45 15 -64 0 -57 20 -84 70 -97 25 -6 70 -21 100 -33 86 -33
109 -39 115 -29 4 5 -2 9 -12 9 -11 0 -23 4 -28 9 -6 4 -37 18 -70 29 -157 54
-166 60 -156 99 5 18 17 29 34 34 15 4 25 3 22 -2 -3 -4 21 -22 55 -39 33 -17
60 -28 60 -25 0 7 51 -26 73 -48 13 -13 27 -17 50 -13 25 5 27 4 12 -3 -21
-10 -17 -12 35 -15 41 -3 80 -17 80 -31 0 -14 34 -47 42 -40 2 3 28 -6 56 -20
29 -14 62 -25 74 -25 13 0 36 -7 52 -15 15 -8 35 -15 42 -15 17 0 18 -30 2
-82 -8 -27 -8 -42 -1 -49 8 -8 13 -5 18 10 8 25 21 27 33 5 13 -24 46 -13 50
16 5 30 -17 100 -32 101 -6 1 -17 1 -23 0 -7 -1 -13 3 -13 9 0 5 -7 10 -15 10
-8 0 -15 4 -15 9 0 9 -48 26 -64 22 -5 -1 -12 3 -16 9 -8 14 -298 140 -321
140 -9 0 -22 7 -29 15 -7 8 -27 15 -44 15 -19 0 -35 7 -42 18 -6 9 -37 30 -68
45 -40 20 -62 38 -76 65 -11 20 -30 53 -41 72 -12 19 -33 58 -47 85 -31 60
-51 85 -69 85 -7 0 -13 -8 -13 -17z"/>
<path d="M1594 4789 c-3 -6 -3 -36 1 -68 5 -44 13 -64 31 -80 29 -25 33 -57 7
-46 -10 4 -31 12 -48 18 -16 6 -40 21 -52 34 -12 12 -29 23 -36 23 -19 0 -30
-29 -18 -44 5 -6 12 -26 16 -43 3 -18 11 -33 16 -33 5 0 9 -7 9 -15 0 -18 -11
-19 -78 -1 -55 14 -67 9 -57 -23 3 -11 1 -22 -5 -26 -17 -11 -11 -61 10 -80
11 -10 20 -26 20 -36 0 -14 -7 -16 -40 -12 -36 5 -40 3 -40 -16 0 -11 6 -21
13 -21 13 -1 57 -34 57 -44 0 -3 -11 -6 -25 -6 -16 0 -25 -6 -25 -16 0 -25 41
-76 56 -70 9 4 14 -2 14 -15 0 -18 60 -129 94 -173 13 -16 13 -20 0 -33 -19
-19 -18 -35 3 -31 11 2 26 30 44 80 26 75 26 77 8 94 -11 9 -19 22 -19 27 0 6
11 -2 24 -17 l23 -28 51 29 c32 17 55 38 61 54 5 15 23 33 40 40 23 10 31 21
31 39 0 14 9 63 19 110 18 81 18 86 2 105 -31 34 -32 42 -20 112 13 77 24 104
41 100 8 -1 11 12 9 40 -2 33 2 45 18 55 33 20 25 25 -26 18 -30 -5 -53 -15
-65 -30 -17 -20 -20 -36 -23 -112 -1 -32 -31 -68 -56 -68 -23 0 -15 26 16 56
l22 20 -21 36 c-48 80 -60 97 -78 101 -10 3 -21 1 -24 -4z"/>
<path d="M1787 1388 c-3 -13 -9 -50 -13 -83 -12 -91 -18 -109 -51 -153 -40
-53 -95 -75 -201 -80 -77 -4 -91 -7 -81 -18 18 -22 -6 -17 -46 9 -41 26 -56
52 -24 42 15 -5 19 -4 15 4 -4 6 -18 11 -32 11 -14 0 -40 11 -57 24 -53 38
-67 40 -67 6 0 -33 -16 -49 -23 -23 -3 10 -5 -3 -6 -28 -1 -32 4 -49 13 -52
12 -5 12 -12 0 -47 -12 -35 -12 -45 -2 -58 9 -11 10 -16 2 -19 -6 -2 -10 -19
-7 -38 2 -18 -1 -36 -7 -40 -5 -3 -10 -1 -10 5 0 16 -40 -7 -47 -28 -4 -9 -11
-20 -17 -24 -7 -5 -6 -8 2 -8 25 0 2 -62 -117 -305 -150 -305 -142 -286 -132
-340 5 -26 5 -48 0 -51 -11 -6 6 -40 34 -71 18 -20 30 -23 94 -23 70 0 76 2
126 39 110 82 248 252 214 264 -9 3 -8 9 3 22 9 11 10 16 3 11 -7 -4 -13 -4
-13 -1 0 11 22 49 39 68 8 11 16 24 16 30 2 32 31 101 54 125 14 15 24 30 23
35 -1 4 2 7 7 7 16 0 61 91 61 122 0 31 20 75 55 123 12 17 20 36 18 43 -3 6
0 12 7 12 6 0 9 4 5 9 -5 9 74 27 103 24 7 0 11 2 7 5 -3 3 4 11 15 17 23 13
120 143 120 163 0 7 -7 15 -15 18 -9 4 -12 15 -9 33 4 18 0 32 -10 40 -9 8
-16 21 -16 31 0 10 -7 23 -15 30 -11 9 -13 26 -8 76 6 63 0 86 -10 42z"/>
</g>
</svg>
